Coordinates
version=1
nRows=21
nColumns=12
inDegrees=yes

Units are S.I. units (second, meters, Newtons, ...)
Angles are in degrees

endheader
time	SC_y	SC_z	SC_x	AC_y	AC_z	AC_x	GH_y	GH_z	GH_yy	EL_x	PS_y
       0.0              -59.52         -4.622           8.22          61.56          3.011         -13.12         -168.5          62.13          60.07          101.4          155.2
 0.0009003              -59.52         -4.616          8.231          61.56          3.009         -13.12         -168.5          62.12          60.08          101.4          155.2
  0.001801              -59.51          -4.61          8.242          61.55          3.008         -13.12         -168.4          62.11          60.08          101.4          155.2
  0.002701              -59.51         -4.603          8.254          61.55          3.006         -13.12         -168.4          62.11          60.08          101.4          155.2
  0.003601               -59.5         -4.596          8.267          61.55          3.004         -13.12         -168.4           62.1          60.08          101.4          155.2
  0.004501              -59.49         -4.589          8.281          61.55          3.002         -13.12         -168.3          62.09          60.08          101.4          155.1
  0.005402              -59.48          -4.58          8.295          61.54            3.0         -13.12         -168.3          62.08          60.08          101.4          155.1
  0.006302              -59.47         -4.572          8.311          61.54          2.997         -13.12         -168.2          62.07          60.09          101.4          155.1
  0.007202              -59.47         -4.562          8.328          61.54          2.995         -13.12         -168.1          62.06          60.09          101.5          155.1
  0.008103              -59.46         -4.552          8.346          61.53          2.992         -13.12         -168.1          62.04          60.09          101.5          155.0
  0.009003              -59.44         -4.541          8.365          61.53          2.989         -13.12         -168.0          62.03          60.09          101.5          155.0
  0.009903              -59.43          -4.53          8.386          61.52          2.986         -13.12         -167.9          62.02          60.09          101.5          155.0
    0.0108              -59.42         -4.517          8.408          61.52          2.983         -13.12         -167.9           62.0           60.1          101.5          154.9
    0.0117              -59.41         -4.504          8.432          61.51           2.98         -13.12         -167.8          61.98           60.1          101.5          154.9
    0.0126              -59.39         -4.489          8.459          61.51          2.976         -13.12         -167.7          61.97           60.1          101.5          154.9
    0.0135              -59.38         -4.473          8.487           61.5          2.971         -13.12         -167.6          61.95           60.1          101.5          154.8
    0.0144              -59.36         -4.456          8.518          61.49          2.967         -13.12         -167.5          61.92          60.11          101.5          154.8
   0.01531              -59.34         -4.437          8.551          61.49          2.962         -13.12         -167.4           61.9          60.11          101.5          154.7
   0.01621              -59.32         -4.417          8.588          61.48          2.957         -13.12         -167.2          61.88          60.12          101.6          154.7
   0.01711               -59.3         -4.395          8.628          61.47          2.951         -13.12         -167.1          61.85          60.12          101.6          154.6
   0.01801              -59.27          -4.37          8.672          61.46          2.944         -13.12         -166.9          61.82          60.13          101.6          154.5
